<?xml version="1.0" encoding="UTF-8"?>
<svg width="1440px" height="900px" viewBox="0 0 1440 900" version="1.1" xmlns="http://www.w3.org/2000/svg">
    <g stroke="none" stroke-width="1" fill="none" fill-rule="evenodd">
        <g transform="translate(0.000000, -1.000000)" fill="#FFFFFF">
            <path d="M0,1 L1440,1 L1440,901 L0,901 L0,1 Z M355.833333,322.380952 C355.833333,311.333333 364.785714,302.380952 375.833333,302.380952 L1064.16667,302.380952 C1075.21429,302.380952 1084.16667,311.333333 1084.16667,322.380952 L1084.16667,579.619048 C1084.16667,590.666667 1075.21429,599.619048 1064.16667,599.619048 L375.833333,599.619048 C364.785714,599.619048 355.833333,590.666667 355.833333,579.619048 L355.833333,322.380952 Z"></path>
            <circle cx="720" cy="451" r="40"></circle>
            <path d="M720,511 C657.333333,511 605,563.333333 605,626 L835,626 C835,563.333333 782.666667,511 720,511 Z"></path>
        </g>
    </g>
</svg> 